Coordinates
version=1
nRows=8
nColumns=40
inDegrees=yes

Units are S.I. units (second, meters, Newtons, ...)
If the header above contains a line with 'inDegrees', this indicates whether rotational values are in degrees (yes) or radians (no).

endheader
time	pelvis_tilt	pelvis_list	pelvis_rotation	pelvis_tx	pelvis_ty	pelvis_tz	hip_flexion_r	hip_adduction_r	hip_rotation_r	knee_angle_r	knee_angle_r_beta	ankle_angle_r	subtalar_angle_r	mtp_angle_r	hip_flexion_l	hip_adduction_l	hip_rotation_l	knee_angle_l	knee_angle_l_beta	ankle_angle_l	subtalar_angle_l	mtp_angle_l	lumbar_extension	lumbar_bending	lumbar_rotation	arm_flex_r	arm_add_r	arm_rot_r	elbow_flex_r	pro_sup_r	wrist_flex_r	wrist_dev_r	arm_flex_l	arm_add_l	arm_rot_l	elbow_flex_l	pro_sup_l	wrist_flex_l	wrist_dev_l
1749651076.79999995	     -2.36572865	    -11.22765426	    -65.64754881	      0.17572593	     -0.37806944	      0.87837552	     80.00000000	     -7.00000000	      0.00000000	     80.00000000	      1.39626340	      0.00000000	      0.00000000	      0.00000000	     80.00000000	     -7.00000000	      0.00000000	     80.00000000	      1.39626340	      0.00000000	      0.00000000	      0.00000000	    -37.35072736	     10.81754915	     -4.11503372	    -14.07572144	    -52.49941298	     89.89465298	    119.83577906	     88.74903207	      0.00000000	      5.00000014	    -38.57434068	     12.08265963	    -89.63856013	      0.03498995	      0.55809456	      0.00000000	      5.00000014
1749651076.83299994	      4.65899424	      8.43326580	   -156.80006217	      0.08389511	     -0.41830373	      0.81009793	     80.00000000	     -7.00000000	      0.00000000	     80.00000000	      1.39626340	      0.00000000	      0.00000000	      0.00000000	     80.00000000	     -7.00000000	      0.00000000	     80.00000000	      1.39626340	      0.00000000	      0.00000000	      0.00000000	     -0.70304082	    -18.16272435	     81.83466548	    -17.70184790	    -63.71069855	     89.84170405	    123.24583547	     88.25739550	      0.00000000	      5.00000014	    -39.56567370	     14.97914464	    -89.66495807	      0.03221435	      0.50113233	      0.00000000	      5.00000014
1749651076.86599994	      1.92975108	     21.12387509	   -154.93365770	      0.07686499	     -0.41678727	      0.78616174	     80.00000000	     -7.00000000	      0.00000000	     80.00000000	      1.39626340	      0.00000000	      0.00000000	      0.00000000	     80.00000000	     -7.00000000	      0.00000000	     80.00000000	      1.39626340	      0.00000000	      0.00000000	      0.00000000	      2.26702299	     -7.38597058	     82.34876099	    -16.40870643	    -64.06188498	     89.83315413	    118.44282771	     88.21895710	      0.00000000	      5.00000014	    -36.14868939	     14.33504542	    -89.66820654	      0.03200320	      0.49984262	      0.00000000	      5.00000014
1749651076.90000010	     -9.09965271	     15.27053783	    -69.41820010	      0.15792409	     -0.42259337	      0.85809168	     80.00000000	     -7.00000000	      0.00000000	     80.00000000	      1.39626340	      0.00000000	      0.00000000	      0.00000000	     80.00000000	     -7.00000000	      0.00000000	     80.00000000	      1.39626340	      0.00000000	      0.00000000	      0.00000000	     -9.42441241	      4.65273226	      2.80714731	    -13.35711748	    -56.42411828	     89.86227282	    109.26983529	     88.20436376	      0.00000000	      5.00000014	    -33.29281393	     10.14190671	    -89.65637542	      0.03374659	      0.54048159	      0.00000000	      5.00000014
1749651076.93400002	     -8.06579408	     12.82755942	    -68.68259172	      0.16345634	     -0.41847015	      0.85766071	     80.00000000	     -7.00000000	      0.00000000	     80.00000000	      1.39626340	      0.00000000	      0.00000000	      0.00000000	     80.00000000	     -7.00000000	      0.00000000	     80.00000000	      1.39626340	      0.00000000	      0.00000000	      0.00000000	    -12.78547912	      5.28190311	      2.77375911	    -12.60891582	    -56.91868333	     89.85964254	    107.52449061	     88.19774809	      0.00000000	      5.00000014	    -30.75448275	      9.50452278	    -89.65487834	      0.03386646	      0.54590269	      0.00000000	      5.00000014
1749651076.96700001	     -7.77816412	      9.88619198	    -64.36540499	      0.16883275	     -0.40972992	      0.84818208	     80.00000000	     -7.00000000	      0.00000000	     80.00000000	      1.39626340	      0.00000000	      0.00000000	      0.00000000	     80.00000000	     -7.00000000	      0.00000000	     80.00000000	      1.39626340	      0.00000000	      0.00000000	      0.00000000	    -17.40359454	      7.98950968	     -0.44732657	    -10.21872574	    -57.30303170	     89.85684025	    107.41875784	     88.08204123	      0.00000000	      5.00000014	    -27.16673223	      8.32948191	    -89.65157366	      0.03402435	      0.55379481	      0.00000000	      5.00000014
1749651077.00000000	    -10.55031995	     13.79128587	    -58.58752397	      0.16476511	     -0.41981111	      0.84603658	     80.00000000	     -7.00000000	      0.00000000	     80.00000000	      1.39626340	      0.00000000	      0.00000000	      0.00000000	     80.00000000	     -7.00000000	      0.00000000	     80.00000000	      1.39626340	      0.00000000	      0.00000000	      0.00000000	    -10.99189017	      8.51838182	     -6.25815537	     -9.15539537	    -54.79168125	     89.87435929	    106.55184295	     88.28148168	      0.00000000	      5.00000014	    -27.68096919	      6.00284601	    -89.65634265	      0.03361820	      0.55898625	      0.00000000	      5.00000014
1749651077.03399992	     -8.34252336	      9.39410533	    -59.42569029	      0.17039624	     -0.40558747	      0.85110388	     80.00000000	     -7.00000000	      0.00000000	     80.00000000	      1.39626340	      0.00000000	      0.00000000	      0.00000000	     80.00000000	     -7.00000000	      0.00000000	     80.00000000	      1.39626340	      0.00000000	      0.00000000	      0.00000000	    -16.88974242	      9.75371930	     -5.17401018	     -7.95711851	    -54.96889025	     89.87643873	    106.58843758	     88.33832803	      0.00000000	      5.00000014	    -25.95667387	      5.03053808	    -89.65703922	      0.03335440	      0.55303868	      0.00000000	      5.00000014
